# xmcd
#
# Track frame offsets:
#	150
#	14153
#	33916
#	50292
#	66087
#	81744
#	99019
#	113021
#	132784
#	149160
#	164953
#	180610
#
# Disc length: 2639 seconds
#
# Revision: 1
# Processed by: cddbd v1.5.2PL0 Copyright (c) Steve Scherf et al.
# Submitted via: audiograbber 1.83.01
#
DISCID=ac0a4d0c
DTITLE=GEORGE STRAIT - CB20016
DYEAR=1900
DGENRE=KARAOKE
TTITLE0=OUT OF THE BLUE CLEAR SKY (WVOCAL)
TTITLE1=I CAN STILL MAKE CHEYENNE (WVOCAL)
TTITLE2=KING OF THE MOUNTAIN (WVOCAL)
TTITLE3=YOU CAN'T MAKE A HEART LOVE SOMEBODY (WVOCAL)
TTITLE4=CARRIED AWAY (WVOCAL)
TTITLE5=ADALIDA (WVOCAL)
TTITLE6=OUT OF THE BLUE CLEAR SKY
TTITLE7=I CAN STILL MAKE CHEYENNE
TTITLE8=KING OF THE MOUNTAIN
TTITLE9=YOU CAN'T MAKE A HEART LOVE SOMEBODY
TTITLE10=CARRIED AWAY
TTITLE11=ADALIDA
EXTD=
EXTT0=
EXTT1=
EXTT2=
EXTT3=
EXTT4=
EXTT5=
EXTT6=
EXTT7=
EXTT8=
EXTT9=
EXTT10=
EXTT11=
PLAYORDER=
